<svg width="48" height="39" viewBox="0 0 48 39" fill="none" xmlns="http://www.w3.org/2000/svg">
<path fill-rule="evenodd" clip-rule="evenodd" d="M26 8C26 9.10457 25.1046 10 24 10C22.8954 10 22 9.10457 22 8C22 6.89543 22.8954 6 24 6C25.1046 6 26 6.89543 26 8ZM28 8C28 10.2091 26.2091 12 24 12C21.7909 12 20 10.2091 20 8C20 5.79086 21.7909 4 24 4C26.2091 4 28 5.79086 28 8ZM21.6345 15H26.5331C28.2895 15 29.7408 16.3061 29.9688 18H18.0552C18.3553 16.2952 19.8437 15 21.6345 15ZM16 18.6345C16 15.5227 18.5227 13 21.6345 13H26.5331C29.5524 13 32 15.4476 32 18.4669C32 19.3136 31.3136 20 30.4669 20H17.3655C16.6114 20 16 19.3887 16 18.6345Z" fill="#767873"/>
<path d="M11.8987 38L14.3087 30.8H15.5487L17.9587 38H17.0337L14.7787 31.32H15.0587L12.8237 38H11.8987ZM13.0587 36.315V35.48H16.7987V36.315H13.0587ZM18.8488 38L18.8538 30.8H19.7538V35.2L22.0188 32.6H23.1738L20.7888 35.3L23.4538 38H22.2088L19.7538 35.4V38H18.8488ZM26.0014 38.14C25.6548 38.14 25.3564 38.085 25.1064 37.975C24.8598 37.865 24.6548 37.7183 24.4914 37.535C24.3281 37.3517 24.1998 37.1483 24.1064 36.925C24.0131 36.7017 23.9464 36.4733 23.9064 36.24C23.8698 36.0067 23.8514 35.7883 23.8514 35.585V32.6H24.7514V35.305C24.7514 35.5583 24.7748 35.8033 24.8214 36.04C24.8681 36.2767 24.9464 36.49 25.0564 36.68C25.1698 36.87 25.3198 37.02 25.5064 37.13C25.6964 37.24 25.9331 37.295 26.2164 37.295C26.4398 37.295 26.6431 37.2567 26.8264 37.18C27.0098 37.1033 27.1664 36.99 27.2964 36.84C27.4264 36.6867 27.5264 36.4933 27.5964 36.26C27.6664 36.0267 27.7014 35.755 27.7014 35.445L28.2864 35.625C28.2864 36.145 28.1914 36.5933 28.0014 36.97C27.8148 37.3467 27.5498 37.6367 27.2064 37.84C26.8664 38.04 26.4648 38.14 26.0014 38.14ZM27.8014 38V36.555H27.7014V32.6H28.5964V38H27.8014ZM33.8414 38V35.295C33.8414 35.0383 33.818 34.7917 33.7714 34.555C33.728 34.3183 33.6497 34.1067 33.5364 33.92C33.4264 33.73 33.2764 33.58 33.0864 33.47C32.8997 33.36 32.663 33.305 32.3764 33.305C32.153 33.305 31.9497 33.3433 31.7664 33.42C31.5864 33.4933 31.4314 33.6067 31.3014 33.76C31.1714 33.9133 31.0697 34.1067 30.9964 34.34C30.9264 34.57 30.8914 34.8417 30.8914 35.155L30.3064 34.975C30.3064 34.4517 30.3997 34.0033 30.5864 33.63C30.7764 33.2533 31.0414 32.965 31.3814 32.765C31.7247 32.5617 32.128 32.46 32.5914 32.46C32.9414 32.46 33.2397 32.515 33.4864 32.625C33.733 32.735 33.938 32.8817 34.1014 33.065C34.2647 33.245 34.393 33.4483 34.4864 33.675C34.5797 33.8983 34.6447 34.1267 34.6814 34.36C34.7214 34.59 34.7414 34.8083 34.7414 35.015V38H33.8414ZM29.9914 38V32.6H30.7914V34.045H30.8914V38H29.9914Z" fill="#767873"/>
</svg>
