<svg width="16" height="16" viewBox="0 0 16 16" fill="none" xmlns="http://www.w3.org/2000/svg">
<path d="M6.87502 15.2996L0.275016 8.69957C0.175016 8.59957 0.104015 8.49124 0.0620154 8.37457C0.0200154 8.25791 -0.000651042 8.13291 1.56251e-05 7.99957C1.56251e-05 7.86624 0.0210158 7.74124 0.0630158 7.62457C0.105016 7.50791 0.175682 7.39957 0.275016 7.29957L6.87502 0.699572C7.05835 0.516239 7.28768 0.420572 7.56302 0.412572C7.83835 0.404572 8.07568 0.500239 8.27501 0.699572C8.47501 0.882905 8.57935 1.11224 8.58802 1.38757C8.59668 1.66291 8.50068 1.90024 8.30002 2.09957L3.40002 6.99957H14.575C14.8583 6.99957 15.096 7.09557 15.288 7.28757C15.48 7.47957 15.5757 7.71691 15.575 7.99957C15.575 8.28291 15.4793 8.52057 15.288 8.71257C15.0967 8.90457 14.859 9.00024 14.575 8.99957H3.40002L8.30002 13.8996C8.48335 14.0829 8.57935 14.3162 8.58802 14.5996C8.59668 14.8829 8.50068 15.1162 8.30002 15.2996C8.11668 15.4996 7.88335 15.5996 7.60002 15.5996C7.31668 15.5996 7.07502 15.4996 6.87502 15.2996Z" fill="black"/>
</svg>
