<svg width="28" height="28" viewBox="0 0 28 28" fill="none" xmlns="http://www.w3.org/2000/svg">
<g clip-path="url(#clip0_369_2827)">
<path d="M14 28C21.732 28 28 21.732 28 14C28 6.26801 21.732 0 14 0C6.26801 0 0 6.26801 0 14C0 21.732 6.26801 28 14 28Z" fill="#C2D5D8"/>
<path d="M19.8614 7.85352H8.40307C6.7655 7.85352 5.25635 9.17564 5.25635 10.8244V17.0933C5.25635 18.7418 6.76529 20.1035 8.40307 20.1035H19.8616C21.499 20.1035 22.7563 18.7418 22.7563 17.0933V10.8244C22.7563 9.17564 21.499 7.85352 19.8614 7.85352Z" fill="#406A80"/>
<path d="M22.7563 10.916H5.25635V12.4473H22.7563V10.916Z" fill="white"/>
<path d="M13.5883 10.916H5.38232V12.4473H12.9697L13.5883 10.916Z" fill="white"/>
<path d="M10.5063 14.416H7.2251V15.0723H10.5063V14.416Z" fill="white"/>
<path d="M13.5688 15.5098H7.2251V16.6035H13.5688V15.5098Z" fill="white"/>
<path d="M11.7324 15.5098H7.35107V16.6035H11.2903L11.7324 15.5098Z" fill="white"/>
</g>
<defs>
<clipPath id="clip0_369_2827">
<rect width="28" height="28" fill="white"/>
</clipPath>
</defs>
</svg>
