<svg width="28" height="28" viewBox="0 0 28 28" fill="none" xmlns="http://www.w3.org/2000/svg">
<path d="M14 28C21.732 28 28 21.732 28 14C28 6.26801 21.732 0 14 0C6.26801 0 0 6.26801 0 14C0 21.732 6.26801 28 14 28Z" fill="#C2D5D8"/>
<path d="M6.22705 17.8574H9.93364V22.9029H6.22705V17.8574Z" fill="#F5E48F"/>
<path d="M11.9932 14.5625H15.8028V22.4518C15.8028 22.5108 15.7912 22.5691 15.7686 22.6236C15.7461 22.678 15.713 22.7275 15.6713 22.7691C15.6297 22.8108 15.5802 22.8439 15.5257 22.8664C15.4713 22.889 15.4129 22.9006 15.354 22.9006H12.4419C12.383 22.9006 12.3246 22.889 12.2702 22.8664C12.2157 22.8439 12.1663 22.8108 12.1246 22.7691C12.0829 22.7275 12.0499 22.678 12.0273 22.6236C12.0048 22.5691 11.9932 22.5108 11.9932 22.4518V14.5625Z" fill="#F5E48F"/>
<path d="M17.7593 10.2383H21.4538C21.512 10.2383 21.5678 10.2614 21.609 10.3026C21.6502 10.3437 21.6733 10.3996 21.6733 10.4578V22.4542C21.6733 22.5732 21.626 22.6874 21.5419 22.7715C21.4577 22.8557 21.3436 22.903 21.2245 22.903H18.208C18.089 22.903 17.9749 22.8557 17.8907 22.7715C17.8066 22.6874 17.7593 22.5732 17.7593 22.4542V10.2383Z" fill="#F5E48F"/>
<g opacity="0.6">
<path d="M9.93364 21.9028V22.7999H6.22705V17.7549H7.12458V21.9028H9.93364Z" fill="#DEC378"/>
<path d="M15.8032 22.3503C15.8032 22.4693 15.756 22.5834 15.6718 22.6676C15.5876 22.7517 15.4735 22.799 15.3545 22.799H12.4419C12.3229 22.799 12.2088 22.7517 12.1246 22.6676C12.0404 22.5834 11.9932 22.4693 11.9932 22.3503V14.4609H12.8902V21.4537C12.8902 21.5727 12.9375 21.6868 13.0217 21.771C13.1058 21.8551 13.22 21.9024 13.339 21.9024H15.354C15.473 21.9023 15.5871 21.9494 15.6713 22.0334C15.7555 22.1173 15.803 22.2313 15.8032 22.3503Z" fill="#DEC378"/>
<path d="M21.6718 22.3507C21.6718 22.4697 21.6246 22.5839 21.5404 22.668C21.4562 22.7522 21.3421 22.7995 21.2231 22.7995H18.2066C18.0876 22.7995 17.9734 22.7522 17.8893 22.668C17.8051 22.5839 17.7578 22.4697 17.7578 22.3507V10.1357H18.6549V21.4546C18.6549 21.5135 18.6665 21.5719 18.689 21.6263C18.7116 21.6808 18.7446 21.7302 18.7863 21.7719C18.828 21.8136 18.8775 21.8466 18.9319 21.8692C18.9863 21.8917 19.0447 21.9034 19.1036 21.9034H21.2217C21.2806 21.9032 21.339 21.9146 21.3935 21.937C21.448 21.9594 21.4976 21.9923 21.5394 22.0338C21.5812 22.0754 21.6144 22.1247 21.6372 22.1791C21.6599 22.2335 21.6717 22.2918 21.6718 22.3507Z" fill="#DEC378"/>
</g>
<path d="M9.3214 23.181H6.94208C6.6923 23.1807 6.45282 23.0814 6.2762 22.9048C6.09958 22.7282 6.00025 22.4887 6 22.2389V18.5212C6.00025 18.2714 6.09958 18.0319 6.2762 17.8553C6.45282 17.6787 6.6923 17.5793 6.94208 17.5791H9.3214C9.57118 17.5793 9.81066 17.6787 9.98728 17.8553C10.1639 18.0319 10.2632 18.2714 10.2635 18.5212V22.2389C10.2632 22.4887 10.1639 22.7282 9.98728 22.9048C9.81066 23.0814 9.57118 23.1807 9.3214 23.181ZM6.94208 18.136C6.83996 18.1361 6.74206 18.1767 6.66985 18.2489C6.59764 18.3212 6.55702 18.4191 6.55689 18.5212V22.2389C6.55702 22.341 6.59764 22.4389 6.66985 22.5111C6.74206 22.5833 6.83996 22.624 6.94208 22.6241H9.3214C9.42352 22.624 9.52142 22.5833 9.59363 22.5111C9.66584 22.4389 9.70646 22.341 9.70659 22.2389V18.5212C9.70646 18.4191 9.66584 18.3212 9.59363 18.2489C9.52142 18.1767 9.42352 18.1361 9.3214 18.136H6.94208Z" fill="#893C21"/>
<path d="M15.4054 23.1811H12.4928C12.3 23.1809 12.1152 23.1042 11.9789 22.9678C11.8426 22.8315 11.7659 22.6467 11.7656 22.4539V14.2861H16.1321V22.4539C16.1319 22.6466 16.0553 22.8314 15.919 22.9677C15.7828 23.104 15.5981 23.1807 15.4054 23.1811ZM12.323 14.8412V22.452C12.323 22.4972 12.3409 22.5405 12.3729 22.5725C12.4048 22.6044 12.4481 22.6224 12.4933 22.6224H15.4058C15.451 22.6224 15.4943 22.6044 15.5263 22.5725C15.5582 22.5405 15.5762 22.4972 15.5762 22.452V14.8412H12.323Z" fill="#893C21"/>
<path d="M21.274 23.1811H18.2575C18.0647 23.1808 17.8799 23.1041 17.7435 22.9678C17.6072 22.8315 17.5305 22.6466 17.5303 22.4539V9.95996H21.5014C21.6335 9.96008 21.7601 10.0126 21.8535 10.1059C21.947 10.1993 21.9996 10.3258 21.9998 10.4579V22.4543C21.9994 22.6468 21.9229 22.8313 21.7869 22.9675C21.6509 23.1037 21.4665 23.1805 21.274 23.1811ZM18.0886 10.5169V22.4543C18.0886 22.4995 18.1065 22.5428 18.1384 22.5748C18.1704 22.6067 18.2137 22.6246 18.2589 22.6246H21.2754C21.3205 22.6246 21.3639 22.6067 21.3958 22.5748C21.4278 22.5428 21.4457 22.4995 21.4457 22.4543V10.5169H18.0886Z" fill="#893C21"/>
<path d="M20.9431 11.9739C20.9565 11.4625 20.8878 11.0459 20.7897 11.0433C20.6915 11.0407 20.6011 11.4532 20.5877 11.9646C20.5743 12.476 20.643 12.8927 20.7412 12.8953C20.8393 12.8978 20.9297 12.4854 20.9431 11.9739Z" fill="white"/>
<path d="M20.8899 13.7875C20.8966 13.5318 20.8225 13.3225 20.7244 13.3199C20.6263 13.3173 20.5413 13.5225 20.5346 13.7782C20.5279 14.0339 20.602 14.2433 20.7001 14.2459C20.7983 14.2484 20.8833 14.0432 20.8899 13.7875Z" fill="white"/>
<path d="M19.0112 11.1946C19.652 8.50273 17.9893 5.80111 15.2975 5.16032C12.6057 4.51954 9.90406 6.18223 9.26328 8.87406C8.62249 11.5659 10.2852 14.2675 12.977 14.9083C15.6688 15.5491 18.3705 13.8864 19.0112 11.1946Z" fill="#F5E48F"/>
<path opacity="0.6" d="M18.8886 11.1667C18.6185 12.2934 17.9665 13.2917 17.0434 13.9918C16.1202 14.6919 14.9831 15.0506 13.8253 15.0068C12.6676 14.9631 11.5608 14.5196 10.6931 13.7518C9.8255 12.984 9.25066 11.9393 9.06641 10.7955C9.4306 10.6912 9.81293 10.6662 10.1876 10.7222C10.5623 10.7783 10.9206 10.914 11.2383 11.1203C11.7089 11.4313 12.0699 11.8879 12.5456 12.1905C13.5763 12.8448 15.0646 12.5929 15.8702 11.6754C16.6759 10.7579 16.752 9.2993 16.1023 8.26626C15.7695 7.7386 15.2804 7.32697 14.7625 6.97891C13.7861 6.32758 12.6906 5.87558 11.539 5.64886C12.3878 5.16728 13.3588 4.94397 14.3327 5.00634C15.3066 5.06872 16.2411 5.41406 17.0215 5.99999C17.802 6.58592 18.3944 7.38695 18.726 8.30477C19.0577 9.22259 19.1142 10.2173 18.8886 11.1667Z" fill="#DEC378"/>
<path opacity="0.5" d="M15.0559 5.64388C16.3015 5.94095 17.3861 6.70353 18.0872 7.77512C18.7883 8.8467 19.0527 10.146 18.826 11.4063C18.8523 11.3182 18.8763 11.2287 18.8979 11.1381C19.1549 9.86455 18.9073 8.54098 18.2073 7.44646C17.5073 6.35194 16.4097 5.572 15.1458 5.27108C13.8819 4.97015 12.5506 5.17176 11.4325 5.8334C10.3144 6.49504 9.49685 7.56501 9.15232 8.8177C9.13066 8.90835 9.11179 8.999 9.0957 9.08965C9.46119 7.86278 10.2823 6.82226 11.3906 6.18153C12.4988 5.5408 13.8103 5.34843 15.0559 5.64388Z" fill="#E1D2D5"/>
<path d="M12.7359 15.1717C11.7253 14.9311 10.8087 14.3963 10.1021 13.6348C9.39542 12.8733 8.93046 11.9194 8.76597 10.8937C8.60148 9.86792 8.74486 8.81644 9.17797 7.87218C9.61108 6.92793 10.3145 6.13332 11.1992 5.58883C12.0839 5.04434 13.1102 4.77443 14.1483 4.81324C15.1865 4.85204 16.1898 5.19782 17.0314 5.80684C17.873 6.41586 18.5151 7.26077 18.8765 8.23473C19.2379 9.20868 19.3024 10.2679 19.0617 11.2785C18.7377 12.6328 17.8897 13.8032 16.7038 14.5331C15.5179 15.2629 14.0909 15.4926 12.7359 15.1717ZM15.0563 5.42605C14.1389 5.20752 13.1772 5.26599 12.293 5.59405C11.4088 5.92211 10.6417 6.50503 10.0888 7.26907C9.53595 8.03312 9.22207 8.94398 9.1869 9.88643C9.15174 10.8289 9.39686 11.7606 9.89127 12.5637C10.3857 13.3669 11.1072 14.0053 11.9645 14.3984C12.8218 14.7914 13.7764 14.9214 14.7076 14.7718C15.6387 14.6223 16.5046 14.1999 17.1958 13.5582C17.8869 12.9165 18.3722 12.0842 18.5902 11.1667C18.8818 9.93658 18.6735 8.64104 18.011 7.56436C17.3484 6.48769 16.2858 5.71783 15.0563 5.42373V5.42605Z" fill="#893C21"/>
<path d="M11.3604 6.05859L11.4369 5.79087L13.0611 6.25507L12.9846 6.52279L11.3604 6.05859Z" fill="#893C21"/>
<path d="M13.394 6.96769C13.3068 6.96769 13.2216 6.94183 13.1491 6.89338C13.0766 6.84494 13.0201 6.77609 12.9867 6.69553C12.9533 6.61497 12.9446 6.52632 12.9616 6.4408C12.9786 6.35528 13.0206 6.27672 13.0823 6.21507C13.1439 6.15341 13.2225 6.11142 13.308 6.09441C13.3935 6.0774 13.4822 6.08613 13.5627 6.1195C13.6433 6.15287 13.7121 6.20937 13.7606 6.28188C13.809 6.35438 13.8349 6.43961 13.8349 6.52681C13.8347 6.6437 13.7883 6.75577 13.7056 6.83842C13.623 6.92107 13.5109 6.96756 13.394 6.96769ZM13.394 6.31798C13.3527 6.31798 13.3123 6.33022 13.278 6.35317C13.2436 6.37612 13.2169 6.40873 13.2011 6.44689C13.1853 6.48505 13.1811 6.52704 13.1892 6.56755C13.1972 6.60806 13.2171 6.64527 13.2463 6.67448C13.2755 6.70369 13.3127 6.72358 13.3533 6.73163C13.3938 6.73969 13.4358 6.73556 13.4739 6.71975C13.5121 6.70394 13.5447 6.67718 13.5676 6.64283C13.5906 6.60849 13.6028 6.56811 13.6028 6.52681C13.6028 6.47142 13.5808 6.41831 13.5417 6.37914C13.5025 6.33998 13.4494 6.31798 13.394 6.31798Z" fill="#893C21"/>
<path d="M9.36475 8.47168L9.44126 8.20395L11.0655 8.66815L10.989 8.93588L9.36475 8.47168Z" fill="#893C21"/>
<path d="M11.3984 9.38077C11.3112 9.38077 11.226 9.35491 11.1535 9.30647C11.081 9.25803 11.0244 9.18917 10.9911 9.10861C10.9577 9.02805 10.949 8.93941 10.966 8.85389C10.983 8.76837 11.025 8.68981 11.0866 8.62815C11.1483 8.5665 11.2269 8.52451 11.3124 8.50749C11.3979 8.49048 11.4865 8.49921 11.5671 8.53258C11.6477 8.56595 11.7165 8.62246 11.765 8.69496C11.8134 8.76746 11.8393 8.8527 11.8393 8.9399C11.8391 9.05679 11.7927 9.16885 11.71 9.25151C11.6273 9.33416 11.5153 9.38065 11.3984 9.38077ZM11.3984 8.73106C11.3571 8.73106 11.3167 8.74331 11.2824 8.76626C11.248 8.7892 11.2213 8.82182 11.2055 8.85998C11.1896 8.89814 11.1855 8.94013 11.1936 8.98064C11.2016 9.02115 11.2215 9.05836 11.2507 9.08757C11.2799 9.11677 11.3171 9.13666 11.3577 9.14472C11.3982 9.15278 11.4402 9.14864 11.4783 9.13284C11.5165 9.11703 11.5491 9.09026 11.572 9.05592C11.595 9.02158 11.6072 8.9812 11.6072 8.9399C11.6072 8.88451 11.5852 8.83139 11.5461 8.79223C11.5069 8.75306 11.4538 8.73106 11.3984 8.73106Z" fill="#893C21"/>
<path d="M9.94531 7.42676L10.0204 7.15862L10.6004 7.32102L10.5254 7.58915L9.94531 7.42676Z" fill="#893C21"/>
<path d="M10.9345 8.03507C10.8473 8.03507 10.7621 8.00921 10.6896 7.96077C10.6171 7.91232 10.5606 7.84347 10.5272 7.76291C10.4938 7.68235 10.4851 7.5937 10.5021 7.50818C10.5191 7.42266 10.5611 7.34411 10.6228 7.28245C10.6844 7.22079 10.763 7.1788 10.8485 7.16179C10.934 7.14478 11.0227 7.15351 11.1032 7.18688C11.1838 7.22025 11.2527 7.27676 11.3011 7.34926C11.3495 7.42176 11.3754 7.507 11.3754 7.59419C11.3753 7.71108 11.3288 7.82315 11.2461 7.9058C11.1635 7.98846 11.0514 8.03494 10.9345 8.03507ZM10.9345 7.38536C10.8932 7.38536 10.8528 7.39761 10.8185 7.42055C10.7842 7.4435 10.7574 7.47612 10.7416 7.51428C10.7258 7.55244 10.7216 7.59443 10.7297 7.63494C10.7378 7.67545 10.7577 7.71266 10.7869 7.74186C10.8161 7.77107 10.8533 7.79096 10.8938 7.79902C10.9343 7.80707 10.9763 7.80294 11.0144 7.78713C11.0526 7.77133 11.0852 7.74456 11.1082 7.71022C11.1311 7.67587 11.1434 7.6355 11.1434 7.59419C11.1434 7.53881 11.1214 7.48569 11.0822 7.44653C11.043 7.40736 10.9899 7.38536 10.9345 7.38536Z" fill="#893C21"/>
<path d="M14.9831 7.46571L14.8095 8.32528L14.346 8.23164L14.5196 7.37207L14.9831 7.46571ZM13.9567 12.2446L13.7973 13.0337L13.3337 12.9401L13.4932 12.1509L13.9567 12.2446ZM14.411 11.3257C14.4331 11.2162 14.4331 11.1205 14.411 11.0386C14.3908 10.9572 14.3453 10.8798 14.2747 10.8065C14.204 10.7332 14.1067 10.6556 13.9828 10.5735C13.7452 10.4197 13.5396 10.2682 13.3662 10.1192C13.1931 9.9682 13.0686 9.79852 12.9927 9.61016C12.9168 9.42179 12.9051 9.19754 12.9576 8.93742C13.0066 8.6949 13.1077 8.49651 13.261 8.34224C13.4147 8.18601 13.6051 8.07994 13.8322 8.02403C14.0612 7.96852 14.3126 7.96842 14.5865 8.02373C14.7957 8.06601 14.9801 8.13582 15.1396 8.23318C15.299 8.33053 15.4285 8.45033 15.528 8.59257C15.6295 8.7352 15.6961 8.89929 15.7278 9.08484C15.7599 9.26842 15.7539 9.46974 15.7096 9.68879L14.7914 9.50329C14.8147 9.3879 14.8231 9.28578 14.8166 9.19694C14.8105 9.10615 14.7905 9.02882 14.7566 8.96497C14.7231 8.89917 14.6788 8.84645 14.6237 8.80682C14.5705 8.76759 14.5068 8.74046 14.4325 8.72545C14.3249 8.70372 14.2324 8.70843 14.1548 8.73959C14.0777 8.76878 14.0159 8.81738 13.9696 8.88538C13.9233 8.95338 13.8909 9.03334 13.8723 9.12526C13.8534 9.21914 13.8534 9.30464 13.8724 9.38177C13.8934 9.45929 13.939 9.53568 14.0093 9.61095C14.0796 9.68622 14.18 9.76859 14.3105 9.85806C14.5439 10.0131 14.7466 10.168 14.9189 10.3229C15.0916 10.4759 15.2159 10.6465 15.2918 10.8349C15.3701 11.0217 15.383 11.2452 15.3304 11.5053C15.2791 11.7596 15.1758 11.9636 15.0205 12.1175C14.8672 12.2718 14.6745 12.3743 14.4423 12.4251C14.2125 12.4744 13.9588 12.471 13.6811 12.4148C13.4953 12.3773 13.3162 12.3167 13.1437 12.233C12.9737 12.1478 12.8254 12.0354 12.6989 11.8958C12.5724 11.7563 12.4835 11.5867 12.4322 11.387C12.381 11.1873 12.382 10.9555 12.4353 10.6914L13.3536 10.8769C13.3259 11.0138 13.3194 11.1316 13.3341 11.2303C13.3511 11.3273 13.3825 11.409 13.4281 11.4752C13.4761 11.5399 13.534 11.5912 13.6016 11.6293C13.6712 11.6678 13.7451 11.695 13.8233 11.7108C13.9348 11.7333 14.031 11.7303 14.1121 11.7019C14.1932 11.6735 14.2586 11.6267 14.3084 11.5614C14.3586 11.4942 14.3928 11.4156 14.411 11.3257Z" fill="#893C21"/>
</svg>
