<svg width="49" height="41" viewBox="0 0 49 41" fill="none" xmlns="http://www.w3.org/2000/svg">
<path d="M0.7 38V30.8H3.545C3.615 30.8 3.69833 30.8033 3.795 30.81C3.89167 30.8133 3.985 30.8233 4.075 30.84C4.465 30.9 4.79167 31.0333 5.055 31.24C5.32167 31.4467 5.52167 31.7083 5.655 32.025C5.78833 32.3383 5.855 32.6867 5.855 33.07C5.855 33.6267 5.71 34.11 5.42 34.52C5.13 34.9267 4.705 35.1817 4.145 35.285L3.805 35.34H1.59V38H0.7ZM4.985 38L3.565 35.07L4.445 34.8L6.005 38H4.985ZM1.59 34.495H3.515C3.57833 34.495 3.65 34.4917 3.73 34.485C3.81333 34.4783 3.89167 34.4667 3.965 34.45C4.195 34.3967 4.38167 34.3 4.525 34.16C4.67167 34.0167 4.77833 33.85 4.845 33.66C4.91167 33.4667 4.945 33.27 4.945 33.07C4.945 32.87 4.91167 32.675 4.845 32.485C4.77833 32.2917 4.67167 32.1233 4.525 31.98C4.38167 31.8367 4.195 31.74 3.965 31.69C3.89167 31.67 3.81333 31.6583 3.73 31.655C3.65 31.6483 3.57833 31.645 3.515 31.645H1.59V34.495ZM7.20625 31.645V30.725H8.09625V31.645H7.20625ZM7.20625 38V32.6H8.09625V38H7.20625ZM13.4415 38V35.295C13.4415 35.0383 13.4182 34.7917 13.3715 34.555C13.3282 34.3183 13.2498 34.1067 13.1365 33.92C13.0265 33.73 12.8765 33.58 12.6865 33.47C12.4998 33.36 12.2632 33.305 11.9765 33.305C11.7532 33.305 11.5498 33.3433 11.3665 33.42C11.1865 33.4933 11.0315 33.6067 10.9015 33.76C10.7715 33.9133 10.6698 34.1067 10.5965 34.34C10.5265 34.57 10.4915 34.8417 10.4915 35.155L9.90648 34.975C9.90648 34.4517 9.99982 34.0033 10.1865 33.63C10.3765 33.2533 10.6415 32.965 10.9815 32.765C11.3248 32.5617 11.7282 32.46 12.1915 32.46C12.5415 32.46 12.8398 32.515 13.0865 32.625C13.3332 32.735 13.5382 32.8817 13.7015 33.065C13.8648 33.245 13.9932 33.4483 14.0865 33.675C14.1798 33.8983 14.2448 34.1267 14.2815 34.36C14.3215 34.59 14.3415 34.8083 14.3415 35.015V38H13.4415ZM9.59148 38V32.6H10.3915V34.045H10.4915V38H9.59148ZM17.8264 40.55C17.5431 40.55 17.2664 40.5067 16.9964 40.42C16.7264 40.3333 16.4781 40.2017 16.2514 40.025C16.0281 39.8517 15.8414 39.6317 15.6914 39.365L16.5064 38.935C16.6397 39.1983 16.8281 39.39 17.0714 39.51C17.3181 39.63 17.5714 39.69 17.8314 39.69C18.1747 39.69 18.4597 39.6267 18.6864 39.5C18.9131 39.3767 19.0797 39.1917 19.1864 38.945C19.2964 38.6983 19.3497 38.3917 19.3464 38.025V36.55H19.4514V32.6H20.2414V38.035C20.2414 38.1817 20.2364 38.3233 20.2264 38.46C20.2197 38.5967 20.2031 38.7317 20.1764 38.865C20.1064 39.2483 19.9681 39.5633 19.7614 39.81C19.5547 40.06 19.2881 40.245 18.9614 40.365C18.6347 40.4883 18.2564 40.55 17.8264 40.55ZM17.7614 38.15C17.2581 38.15 16.8264 38.025 16.4664 37.775C16.1064 37.5217 15.8281 37.18 15.6314 36.75C15.4381 36.32 15.3414 35.835 15.3414 35.295C15.3414 34.755 15.4381 34.27 15.6314 33.84C15.8281 33.41 16.1064 33.0717 16.4664 32.825C16.8264 32.575 17.2564 32.45 17.7564 32.45C18.2664 32.45 18.6947 32.5733 19.0414 32.82C19.3881 33.0667 19.6497 33.405 19.8264 33.835C20.0064 34.265 20.0964 34.7517 20.0964 35.295C20.0964 35.8317 20.0064 36.3167 19.8264 36.75C19.6497 37.18 19.3881 37.5217 19.0414 37.775C18.6947 38.025 18.2681 38.15 17.7614 38.15ZM17.8714 37.335C18.2347 37.335 18.5331 37.2483 18.7664 37.075C18.9997 36.8983 19.1714 36.6567 19.2814 36.35C19.3947 36.04 19.4514 35.6883 19.4514 35.295C19.4514 34.895 19.3947 34.5433 19.2814 34.24C19.1714 33.9333 19.0014 33.695 18.7714 33.525C18.5414 33.3517 18.2497 33.265 17.8964 33.265C17.5297 33.265 17.2264 33.355 16.9864 33.535C16.7497 33.715 16.5731 33.9583 16.4564 34.265C16.3431 34.5717 16.2864 34.915 16.2864 35.295C16.2864 35.6783 16.3447 36.025 16.4614 36.335C16.5781 36.6417 16.7531 36.885 16.9864 37.065C17.2231 37.245 17.5181 37.335 17.8714 37.335ZM21.6325 38L21.6375 30.8H22.5375V35.2L24.8025 32.6H25.9575L23.5725 35.3L26.2375 38H24.9925L22.5375 35.4V38H21.6325ZM28.2702 38.15C27.8668 38.15 27.5285 38.0767 27.2552 37.93C26.9852 37.78 26.7802 37.5833 26.6402 37.34C26.5035 37.0967 26.4352 36.83 26.4352 36.54C26.4352 36.2567 26.4885 36.0117 26.5952 35.805C26.7052 35.595 26.8585 35.4217 27.0552 35.285C27.2518 35.145 27.4868 35.035 27.7602 34.955C28.0168 34.885 28.3035 34.825 28.6202 34.775C28.9402 34.7217 29.2635 34.6733 29.5902 34.63C29.9168 34.5867 30.2218 34.545 30.5052 34.505L30.1852 34.69C30.1952 34.21 30.0985 33.855 29.8952 33.625C29.6952 33.395 29.3485 33.28 28.8552 33.28C28.5285 33.28 28.2418 33.355 27.9952 33.505C27.7518 33.6517 27.5802 33.8917 27.4802 34.225L26.6352 33.97C26.7652 33.4967 27.0168 33.125 27.3902 32.855C27.7635 32.585 28.2552 32.45 28.8652 32.45C29.3552 32.45 29.7752 32.5383 30.1252 32.715C30.4785 32.8883 30.7318 33.1517 30.8852 33.505C30.9618 33.6717 31.0102 33.8533 31.0302 34.05C31.0502 34.2433 31.0602 34.4467 31.0602 34.66V38H30.2702V36.705L30.4552 36.825C30.2518 37.2617 29.9668 37.5917 29.6002 37.815C29.2368 38.0383 28.7935 38.15 28.2702 38.15ZM28.4052 37.405C28.7252 37.405 29.0018 37.3483 29.2352 37.235C29.4718 37.1183 29.6618 36.9667 29.8052 36.78C29.9485 36.59 30.0418 36.3833 30.0852 36.16C30.1352 35.9933 30.1618 35.8083 30.1652 35.605C30.1718 35.3983 30.1752 35.24 30.1752 35.13L30.4852 35.265C30.1952 35.305 29.9102 35.3433 29.6302 35.38C29.3502 35.4167 29.0852 35.4567 28.8352 35.5C28.5852 35.54 28.3602 35.5883 28.1602 35.645C28.0135 35.6917 27.8752 35.7517 27.7452 35.825C27.6185 35.8983 27.5152 35.9933 27.4352 36.11C27.3585 36.2233 27.3202 36.365 27.3202 36.535C27.3202 36.6817 27.3568 36.8217 27.4302 36.955C27.5068 37.0883 27.6235 37.1967 27.7802 37.28C27.9402 37.3633 28.1485 37.405 28.4052 37.405ZM34.4002 38.145C33.7568 38.145 33.2285 38.005 32.8152 37.725C32.4052 37.4417 32.1535 37.0467 32.0602 36.54L32.9702 36.395C33.0435 36.6883 33.2118 36.9217 33.4752 37.095C33.7385 37.265 34.0652 37.35 34.4552 37.35C34.8252 37.35 35.1152 37.2733 35.3252 37.12C35.5352 36.9667 35.6402 36.7583 35.6402 36.495C35.6402 36.3417 35.6052 36.2183 35.5352 36.125C35.4652 36.0283 35.3202 35.9383 35.1002 35.855C34.8835 35.7717 34.5552 35.6717 34.1152 35.555C33.6385 35.4283 33.2635 35.2967 32.9902 35.16C32.7168 35.0233 32.5218 34.865 32.4052 34.685C32.2885 34.505 32.2302 34.2867 32.2302 34.03C32.2302 33.7133 32.3168 33.4367 32.4902 33.2C32.6635 32.96 32.9052 32.775 33.2152 32.645C33.5285 32.515 33.8918 32.45 34.3052 32.45C34.7152 32.45 35.0818 32.515 35.4052 32.645C35.7285 32.775 35.9885 32.96 36.1852 33.2C36.3852 33.4367 36.5035 33.7133 36.5402 34.03L35.6302 34.195C35.5868 33.905 35.4468 33.6767 35.2102 33.51C34.9768 33.3433 34.6752 33.255 34.3052 33.245C33.9552 33.2317 33.6702 33.2933 33.4502 33.43C33.2335 33.5667 33.1252 33.7517 33.1252 33.985C33.1252 34.115 33.1652 34.2267 33.2452 34.32C33.3285 34.4133 33.4802 34.5017 33.7002 34.585C33.9235 34.6683 34.2468 34.7633 34.6702 34.87C35.1468 34.99 35.5218 35.1217 35.7952 35.265C36.0718 35.405 36.2685 35.5717 36.3852 35.765C36.5018 35.955 36.5602 36.19 36.5602 36.47C36.5602 36.99 36.3685 37.4 35.9852 37.7C35.6018 37.9967 35.0735 38.145 34.4002 38.145ZM39.1979 38.15C38.7946 38.15 38.4562 38.0767 38.1829 37.93C37.9129 37.78 37.7079 37.5833 37.5679 37.34C37.4312 37.0967 37.3629 36.83 37.3629 36.54C37.3629 36.2567 37.4162 36.0117 37.5229 35.805C37.6329 35.595 37.7862 35.4217 37.9829 35.285C38.1796 35.145 38.4146 35.035 38.6879 34.955C38.9446 34.885 39.2312 34.825 39.5479 34.775C39.8679 34.7217 40.1912 34.6733 40.5179 34.63C40.8446 34.5867 41.1496 34.545 41.4329 34.505L41.1129 34.69C41.1229 34.21 41.0262 33.855 40.8229 33.625C40.6229 33.395 40.2762 33.28 39.7829 33.28C39.4562 33.28 39.1696 33.355 38.9229 33.505C38.6796 33.6517 38.5079 33.8917 38.4079 34.225L37.5629 33.97C37.6929 33.4967 37.9446 33.125 38.3179 32.855C38.6912 32.585 39.1829 32.45 39.7929 32.45C40.2829 32.45 40.7029 32.5383 41.0529 32.715C41.4062 32.8883 41.6596 33.1517 41.8129 33.505C41.8896 33.6717 41.9379 33.8533 41.9579 34.05C41.9779 34.2433 41.9879 34.4467 41.9879 34.66V38H41.1979V36.705L41.3829 36.825C41.1796 37.2617 40.8946 37.5917 40.5279 37.815C40.1646 38.0383 39.7212 38.15 39.1979 38.15ZM39.3329 37.405C39.6529 37.405 39.9296 37.3483 40.1629 37.235C40.3996 37.1183 40.5896 36.9667 40.7329 36.78C40.8762 36.59 40.9696 36.3833 41.0129 36.16C41.0629 35.9933 41.0896 35.8083 41.0929 35.605C41.0996 35.3983 41.1029 35.24 41.1029 35.13L41.4129 35.265C41.1229 35.305 40.8379 35.3433 40.5579 35.38C40.2779 35.4167 40.0129 35.4567 39.7629 35.5C39.5129 35.54 39.2879 35.5883 39.0879 35.645C38.9412 35.6917 38.8029 35.7517 38.6729 35.825C38.5462 35.8983 38.4429 35.9933 38.3629 36.11C38.2862 36.2233 38.2479 36.365 38.2479 36.535C38.2479 36.6817 38.2846 36.8217 38.3579 36.955C38.4346 37.0883 38.5512 37.1967 38.7079 37.28C38.8679 37.3633 39.0762 37.405 39.3329 37.405ZM47.1329 38V35.295C47.1329 35.0383 47.1096 34.7917 47.0629 34.555C47.0196 34.3183 46.9412 34.1067 46.8279 33.92C46.7179 33.73 46.5679 33.58 46.3779 33.47C46.1912 33.36 45.9546 33.305 45.6679 33.305C45.4446 33.305 45.2412 33.3433 45.0579 33.42C44.8779 33.4933 44.7229 33.6067 44.5929 33.76C44.4629 33.9133 44.3612 34.1067 44.2879 34.34C44.2179 34.57 44.1829 34.8417 44.1829 35.155L43.5979 34.975C43.5979 34.4517 43.6912 34.0033 43.8779 33.63C44.0679 33.2533 44.3329 32.965 44.6729 32.765C45.0162 32.5617 45.4196 32.46 45.8829 32.46C46.2329 32.46 46.5312 32.515 46.7779 32.625C47.0246 32.735 47.2296 32.8817 47.3929 33.065C47.5562 33.245 47.6846 33.4483 47.7779 33.675C47.8712 33.8983 47.9362 34.1267 47.9729 34.36C48.0129 34.59 48.0329 34.8083 48.0329 35.015V38H47.1329ZM43.2829 38V32.6H44.0829V34.045H44.1829V38H43.2829Z" fill="#767873"/>
<path d="M19 19H22V13H28V19H31V10L25 5.5L19 10V19ZM19 21C18.45 21 17.979 20.804 17.587 20.412C17.195 20.02 16.9993 19.5493 17 19V10C17 9.68333 17.071 9.38333 17.213 9.1C17.355 8.81667 17.5507 8.58333 17.8 8.4L23.8 3.9C23.9833 3.76667 24.175 3.66667 24.375 3.6C24.575 3.53333 24.7833 3.5 25 3.5C25.2167 3.5 25.425 3.53333 25.625 3.6C25.825 3.66667 26.0167 3.76667 26.2 3.9L32.2 8.4C32.45 8.58333 32.646 8.81667 32.788 9.1C32.93 9.38333 33.0007 9.68333 33 10V19C33 19.55 32.804 20.021 32.412 20.413C32.02 20.805 31.5493 21.0007 31 21H26V15H24V21H19Z" fill="#767873"/>
</svg>
