<svg width="49" height="41" viewBox="0 0 49 41" fill="none" xmlns="http://www.w3.org/2000/svg">
<path d="M8.49543 38V31.645H6.04043V30.8H11.8404V31.645H9.38543V38H8.49543ZM13.4684 38.15C13.0651 38.15 12.7267 38.0767 12.4534 37.93C12.1834 37.78 11.9784 37.5833 11.8384 37.34C11.7017 37.0967 11.6334 36.83 11.6334 36.54C11.6334 36.2567 11.6867 36.0117 11.7934 35.805C11.9034 35.595 12.0567 35.4217 12.2534 35.285C12.4501 35.145 12.6851 35.035 12.9584 34.955C13.2151 34.885 13.5017 34.825 13.8184 34.775C14.1384 34.7217 14.4617 34.6733 14.7884 34.63C15.1151 34.5867 15.4201 34.545 15.7034 34.505L15.3834 34.69C15.3934 34.21 15.2967 33.855 15.0934 33.625C14.8934 33.395 14.5467 33.28 14.0534 33.28C13.7267 33.28 13.4401 33.355 13.1934 33.505C12.9501 33.6517 12.7784 33.8917 12.6784 34.225L11.8334 33.97C11.9634 33.4967 12.2151 33.125 12.5884 32.855C12.9617 32.585 13.4534 32.45 14.0634 32.45C14.5534 32.45 14.9734 32.5383 15.3234 32.715C15.6767 32.8883 15.9301 33.1517 16.0834 33.505C16.1601 33.6717 16.2084 33.8533 16.2284 34.05C16.2484 34.2433 16.2584 34.4467 16.2584 34.66V38H15.4684V36.705L15.6534 36.825C15.4501 37.2617 15.1651 37.5917 14.7984 37.815C14.4351 38.0383 13.9917 38.15 13.4684 38.15ZM13.6034 37.405C13.9234 37.405 14.2001 37.3483 14.4334 37.235C14.6701 37.1183 14.8601 36.9667 15.0034 36.78C15.1467 36.59 15.2401 36.3833 15.2834 36.16C15.3334 35.9933 15.3601 35.8083 15.3634 35.605C15.3701 35.3983 15.3734 35.24 15.3734 35.13L15.6834 35.265C15.3934 35.305 15.1084 35.3433 14.8284 35.38C14.5484 35.4167 14.2834 35.4567 14.0334 35.5C13.7834 35.54 13.5584 35.5883 13.3584 35.645C13.2117 35.6917 13.0734 35.7517 12.9434 35.825C12.8167 35.8983 12.7134 35.9933 12.6334 36.11C12.5567 36.2233 12.5184 36.365 12.5184 36.535C12.5184 36.6817 12.5551 36.8217 12.6284 36.955C12.7051 37.0883 12.8217 37.1967 12.9784 37.28C13.1384 37.3633 13.3467 37.405 13.6034 37.405ZM19.7434 40.55C19.4601 40.55 19.1834 40.5067 18.9134 40.42C18.6434 40.3333 18.3951 40.2017 18.1684 40.025C17.9451 39.8517 17.7584 39.6317 17.6084 39.365L18.4234 38.935C18.5567 39.1983 18.7451 39.39 18.9884 39.51C19.2351 39.63 19.4884 39.69 19.7484 39.69C20.0917 39.69 20.3767 39.6267 20.6034 39.5C20.8301 39.3767 20.9967 39.1917 21.1034 38.945C21.2134 38.6983 21.2667 38.3917 21.2634 38.025V36.55H21.3684V32.6H22.1584V38.035C22.1584 38.1817 22.1534 38.3233 22.1434 38.46C22.1367 38.5967 22.1201 38.7317 22.0934 38.865C22.0234 39.2483 21.8851 39.5633 21.6784 39.81C21.4717 40.06 21.2051 40.245 20.8784 40.365C20.5517 40.4883 20.1734 40.55 19.7434 40.55ZM19.6784 38.15C19.1751 38.15 18.7434 38.025 18.3834 37.775C18.0234 37.5217 17.7451 37.18 17.5484 36.75C17.3551 36.32 17.2584 35.835 17.2584 35.295C17.2584 34.755 17.3551 34.27 17.5484 33.84C17.7451 33.41 18.0234 33.0717 18.3834 32.825C18.7434 32.575 19.1734 32.45 19.6734 32.45C20.1834 32.45 20.6117 32.5733 20.9584 32.82C21.3051 33.0667 21.5667 33.405 21.7434 33.835C21.9234 34.265 22.0134 34.7517 22.0134 35.295C22.0134 35.8317 21.9234 36.3167 21.7434 36.75C21.5667 37.18 21.3051 37.5217 20.9584 37.775C20.6117 38.025 20.1851 38.15 19.6784 38.15ZM19.7884 37.335C20.1517 37.335 20.4501 37.2483 20.6834 37.075C20.9167 36.8983 21.0884 36.6567 21.1984 36.35C21.3117 36.04 21.3684 35.6883 21.3684 35.295C21.3684 34.895 21.3117 34.5433 21.1984 34.24C21.0884 33.9333 20.9184 33.695 20.6884 33.525C20.4584 33.3517 20.1667 33.265 19.8134 33.265C19.4467 33.265 19.1434 33.355 18.9034 33.535C18.6667 33.715 18.4901 33.9583 18.3734 34.265C18.2601 34.5717 18.2034 34.915 18.2034 35.295C18.2034 35.6783 18.2617 36.025 18.3784 36.335C18.4951 36.6417 18.6701 36.885 18.9034 37.065C19.1401 37.245 19.4351 37.335 19.7884 37.335ZM23.6545 31.645V30.725H24.5445V31.645H23.6545ZM23.6545 38V32.6H24.5445V38H23.6545ZM29.8897 38V35.295C29.8897 35.0383 29.8664 34.7917 29.8197 34.555C29.7764 34.3183 29.6981 34.1067 29.5847 33.92C29.4747 33.73 29.3247 33.58 29.1347 33.47C28.9481 33.36 28.7114 33.305 28.4247 33.305C28.2014 33.305 27.9981 33.3433 27.8147 33.42C27.6347 33.4933 27.4797 33.6067 27.3497 33.76C27.2197 33.9133 27.1181 34.1067 27.0447 34.34C26.9747 34.57 26.9397 34.8417 26.9397 35.155L26.3547 34.975C26.3547 34.4517 26.4481 34.0033 26.6347 33.63C26.8247 33.2533 27.0897 32.965 27.4297 32.765C27.7731 32.5617 28.1764 32.46 28.6397 32.46C28.9897 32.46 29.2881 32.515 29.5347 32.625C29.7814 32.735 29.9864 32.8817 30.1497 33.065C30.3131 33.245 30.4414 33.4483 30.5347 33.675C30.6281 33.8983 30.6931 34.1267 30.7297 34.36C30.7697 34.59 30.7897 34.8083 30.7897 35.015V38H29.8897ZM26.0397 38V30.8H26.8397V34.775H26.9397V38H26.0397ZM33.6246 38.15C33.2213 38.15 32.883 38.0767 32.6096 37.93C32.3396 37.78 32.1346 37.5833 31.9946 37.34C31.858 37.0967 31.7896 36.83 31.7896 36.54C31.7896 36.2567 31.843 36.0117 31.9496 35.805C32.0596 35.595 32.213 35.4217 32.4096 35.285C32.6063 35.145 32.8413 35.035 33.1146 34.955C33.3713 34.885 33.658 34.825 33.9746 34.775C34.2946 34.7217 34.618 34.6733 34.9446 34.63C35.2713 34.5867 35.5763 34.545 35.8596 34.505L35.5396 34.69C35.5496 34.21 35.453 33.855 35.2496 33.625C35.0496 33.395 34.703 33.28 34.2096 33.28C33.883 33.28 33.5963 33.355 33.3496 33.505C33.1063 33.6517 32.9346 33.8917 32.8346 34.225L31.9896 33.97C32.1196 33.4967 32.3713 33.125 32.7446 32.855C33.118 32.585 33.6096 32.45 34.2196 32.45C34.7096 32.45 35.1296 32.5383 35.4796 32.715C35.833 32.8883 36.0863 33.1517 36.2396 33.505C36.3163 33.6717 36.3646 33.8533 36.3846 34.05C36.4046 34.2433 36.4146 34.4467 36.4146 34.66V38H35.6246V36.705L35.8096 36.825C35.6063 37.2617 35.3213 37.5917 34.9546 37.815C34.5913 38.0383 34.148 38.15 33.6246 38.15ZM33.7596 37.405C34.0796 37.405 34.3563 37.3483 34.5896 37.235C34.8263 37.1183 35.0163 36.9667 35.1596 36.78C35.303 36.59 35.3963 36.3833 35.4396 36.16C35.4896 35.9933 35.5163 35.8083 35.5196 35.605C35.5263 35.3983 35.5296 35.24 35.5296 35.13L35.8396 35.265C35.5496 35.305 35.2646 35.3433 34.9846 35.38C34.7046 35.4167 34.4396 35.4567 34.1896 35.5C33.9396 35.54 33.7146 35.5883 33.5146 35.645C33.368 35.6917 33.2296 35.7517 33.0996 35.825C32.973 35.8983 32.8696 35.9933 32.7896 36.11C32.713 36.2233 32.6746 36.365 32.6746 36.535C32.6746 36.6817 32.7113 36.8217 32.7846 36.955C32.8613 37.0883 32.978 37.1967 33.1346 37.28C33.2946 37.3633 33.503 37.405 33.7596 37.405ZM41.5596 38V35.295C41.5596 35.0383 41.5363 34.7917 41.4896 34.555C41.4463 34.3183 41.368 34.1067 41.2546 33.92C41.1446 33.73 40.9946 33.58 40.8046 33.47C40.618 33.36 40.3813 33.305 40.0946 33.305C39.8713 33.305 39.668 33.3433 39.4846 33.42C39.3046 33.4933 39.1496 33.6067 39.0196 33.76C38.8896 33.9133 38.788 34.1067 38.7146 34.34C38.6446 34.57 38.6096 34.8417 38.6096 35.155L38.0246 34.975C38.0246 34.4517 38.118 34.0033 38.3046 33.63C38.4946 33.2533 38.7596 32.965 39.0996 32.765C39.443 32.5617 39.8463 32.46 40.3096 32.46C40.6596 32.46 40.958 32.515 41.2046 32.625C41.4513 32.735 41.6563 32.8817 41.8196 33.065C41.983 33.245 42.1113 33.4483 42.2046 33.675C42.298 33.8983 42.363 34.1267 42.3996 34.36C42.4396 34.59 42.4596 34.8083 42.4596 35.015V38H41.5596ZM37.7096 38V32.6H38.5096V34.045H38.6096V38H37.7096Z" fill="#767873"/>
<path d="M21 14C20.7167 14 20.479 13.904 20.287 13.712C20.095 13.52 19.9993 13.2827 20 13C20 12.7167 20.096 12.479 20.288 12.287C20.48 12.095 20.7173 11.9993 21 12H29C29.2833 12 29.521 12.096 29.713 12.288C29.905 12.48 30.0007 12.7173 30 13C30 13.2833 29.904 13.521 29.712 13.713C29.52 13.905 29.2827 14.0007 29 14H21ZM21 18C20.7167 18 20.479 17.904 20.287 17.712C20.095 17.52 19.9993 17.2827 20 17C20 16.7167 20.096 16.479 20.288 16.287C20.48 16.095 20.7173 15.9993 21 16H26C26.2833 16 26.521 16.096 26.713 16.288C26.905 16.48 27.0007 16.7173 27 17C27 17.2833 26.904 17.521 26.712 17.713C26.52 17.905 26.2827 18.0007 26 18H21ZM18 22C17.45 22 16.979 21.804 16.587 21.412C16.195 21.02 15.9993 20.5493 16 20V6C16 5.45 16.196 4.979 16.588 4.587C16.98 4.195 17.4507 3.99934 18 4H19V3C19 2.71667 19.096 2.479 19.288 2.287C19.48 2.095 19.7173 1.99934 20 2C20.2833 2 20.521 2.096 20.713 2.288C20.905 2.48 21.0007 2.71734 21 3V4H29V3C29 2.71667 29.096 2.479 29.288 2.287C29.48 2.095 29.7173 1.99934 30 2C30.2833 2 30.521 2.096 30.713 2.288C30.905 2.48 31.0007 2.71734 31 3V4H32C32.55 4 33.021 4.196 33.413 4.588C33.805 4.98 34.0007 5.45067 34 6V20C34 20.55 33.804 21.021 33.412 21.413C33.02 21.805 32.5493 22.0007 32 22H18ZM18 20H32V10H18V20ZM18 8H32V6H18V8Z" fill="#767873"/>
</svg>
