<svg width="49" height="39" viewBox="0 0 49 39" fill="none" xmlns="http://www.w3.org/2000/svg">
<path d="M4.83332 38V31.645H2.37832V30.8H8.17832V31.645H5.72332V38H4.83332ZM8.47637 38V32.6H9.27137V33.905L9.14137 33.735C9.2047 33.5683 9.28637 33.415 9.38637 33.275C9.4897 33.135 9.6047 33.02 9.73137 32.93C9.87137 32.8167 10.0297 32.73 10.2064 32.67C10.383 32.61 10.563 32.575 10.7464 32.565C10.9297 32.5517 11.1014 32.5633 11.2614 32.6V33.435C11.0747 33.385 10.8697 33.3717 10.6464 33.395C10.423 33.4183 10.2164 33.5 10.0264 33.64C9.85303 33.7633 9.71803 33.9133 9.62137 34.09C9.52803 34.2667 9.46303 34.4583 9.42637 34.665C9.3897 34.8683 9.37137 35.0767 9.37137 35.29V38H8.47637ZM13.5661 38.15C13.1627 38.15 12.8244 38.0767 12.5511 37.93C12.2811 37.78 12.0761 37.5833 11.9361 37.34C11.7994 37.0967 11.7311 36.83 11.7311 36.54C11.7311 36.2567 11.7844 36.0117 11.8911 35.805C12.0011 35.595 12.1544 35.4217 12.3511 35.285C12.5477 35.145 12.7827 35.035 13.0561 34.955C13.3127 34.885 13.5994 34.825 13.9161 34.775C14.2361 34.7217 14.5594 34.6733 14.8861 34.63C15.2127 34.5867 15.5177 34.545 15.8011 34.505L15.4811 34.69C15.4911 34.21 15.3944 33.855 15.1911 33.625C14.9911 33.395 14.6444 33.28 14.1511 33.28C13.8244 33.28 13.5377 33.355 13.2911 33.505C13.0477 33.6517 12.8761 33.8917 12.7761 34.225L11.9311 33.97C12.0611 33.4967 12.3127 33.125 12.6861 32.855C13.0594 32.585 13.5511 32.45 14.1611 32.45C14.6511 32.45 15.0711 32.5383 15.4211 32.715C15.7744 32.8883 16.0277 33.1517 16.1811 33.505C16.2577 33.6717 16.3061 33.8533 16.3261 34.05C16.3461 34.2433 16.3561 34.4467 16.3561 34.66V38H15.5661V36.705L15.7511 36.825C15.5477 37.2617 15.2627 37.5917 14.8961 37.815C14.5327 38.0383 14.0894 38.15 13.5661 38.15ZM13.7011 37.405C14.0211 37.405 14.2977 37.3483 14.5311 37.235C14.7677 37.1183 14.9577 36.9667 15.1011 36.78C15.2444 36.59 15.3377 36.3833 15.3811 36.16C15.4311 35.9933 15.4577 35.8083 15.4611 35.605C15.4677 35.3983 15.4711 35.24 15.4711 35.13L15.7811 35.265C15.4911 35.305 15.2061 35.3433 14.9261 35.38C14.6461 35.4167 14.3811 35.4567 14.1311 35.5C13.8811 35.54 13.6561 35.5883 13.4561 35.645C13.3094 35.6917 13.1711 35.7517 13.0411 35.825C12.9144 35.8983 12.8111 35.9933 12.7311 36.11C12.6544 36.2233 12.6161 36.365 12.6161 36.535C12.6161 36.6817 12.6527 36.8217 12.7261 36.955C12.8027 37.0883 12.9194 37.1967 13.0761 37.28C13.2361 37.3633 13.4444 37.405 13.7011 37.405ZM21.5011 38V35.295C21.5011 35.0383 21.4777 34.7917 21.4311 34.555C21.3877 34.3183 21.3094 34.1067 21.1961 33.92C21.0861 33.73 20.9361 33.58 20.7461 33.47C20.5594 33.36 20.3227 33.305 20.0361 33.305C19.8127 33.305 19.6094 33.3433 19.4261 33.42C19.2461 33.4933 19.0911 33.6067 18.9611 33.76C18.8311 33.9133 18.7294 34.1067 18.6561 34.34C18.5861 34.57 18.5511 34.8417 18.5511 35.155L17.9661 34.975C17.9661 34.4517 18.0594 34.0033 18.2461 33.63C18.4361 33.2533 18.7011 32.965 19.0411 32.765C19.3844 32.5617 19.7877 32.46 20.2511 32.46C20.6011 32.46 20.8994 32.515 21.1461 32.625C21.3927 32.735 21.5977 32.8817 21.7611 33.065C21.9244 33.245 22.0527 33.4483 22.1461 33.675C22.2394 33.8983 22.3044 34.1267 22.3411 34.36C22.3811 34.59 22.4011 34.8083 22.4011 35.015V38H21.5011ZM17.6511 38V32.6H18.4511V34.045H18.5511V38H17.6511ZM25.741 38.145C25.0976 38.145 24.5693 38.005 24.156 37.725C23.746 37.4417 23.4943 37.0467 23.401 36.54L24.311 36.395C24.3843 36.6883 24.5526 36.9217 24.816 37.095C25.0793 37.265 25.406 37.35 25.796 37.35C26.166 37.35 26.456 37.2733 26.666 37.12C26.876 36.9667 26.981 36.7583 26.981 36.495C26.981 36.3417 26.946 36.2183 26.876 36.125C26.806 36.0283 26.661 35.9383 26.441 35.855C26.2243 35.7717 25.896 35.6717 25.456 35.555C24.9793 35.4283 24.6043 35.2967 24.331 35.16C24.0576 35.0233 23.8626 34.865 23.746 34.685C23.6293 34.505 23.571 34.2867 23.571 34.03C23.571 33.7133 23.6576 33.4367 23.831 33.2C24.0043 32.96 24.246 32.775 24.556 32.645C24.8693 32.515 25.2326 32.45 25.646 32.45C26.056 32.45 26.4226 32.515 26.746 32.645C27.0693 32.775 27.3293 32.96 27.526 33.2C27.726 33.4367 27.8443 33.7133 27.881 34.03L26.971 34.195C26.9276 33.905 26.7876 33.6767 26.551 33.51C26.3176 33.3433 26.016 33.255 25.646 33.245C25.296 33.2317 25.011 33.2933 24.791 33.43C24.5743 33.5667 24.466 33.7517 24.466 33.985C24.466 34.115 24.506 34.2267 24.586 34.32C24.6693 34.4133 24.821 34.5017 25.041 34.585C25.2643 34.6683 25.5876 34.7633 26.011 34.87C26.4876 34.99 26.8626 35.1217 27.136 35.265C27.4126 35.405 27.6093 35.5717 27.726 35.765C27.8426 35.955 27.901 36.19 27.901 36.47C27.901 36.99 27.7093 37.4 27.326 37.7C26.9426 37.9967 26.4143 38.145 25.741 38.145ZM30.5387 38.15C30.1354 38.15 29.797 38.0767 29.5237 37.93C29.2537 37.78 29.0487 37.5833 28.9087 37.34C28.772 37.0967 28.7037 36.83 28.7037 36.54C28.7037 36.2567 28.757 36.0117 28.8637 35.805C28.9737 35.595 29.127 35.4217 29.3237 35.285C29.5204 35.145 29.7554 35.035 30.0287 34.955C30.2854 34.885 30.572 34.825 30.8887 34.775C31.2087 34.7217 31.532 34.6733 31.8587 34.63C32.1854 34.5867 32.4904 34.545 32.7737 34.505L32.4537 34.69C32.4637 34.21 32.367 33.855 32.1637 33.625C31.9637 33.395 31.617 33.28 31.1237 33.28C30.797 33.28 30.5104 33.355 30.2637 33.505C30.0204 33.6517 29.8487 33.8917 29.7487 34.225L28.9037 33.97C29.0337 33.4967 29.2854 33.125 29.6587 32.855C30.032 32.585 30.5237 32.45 31.1337 32.45C31.6237 32.45 32.0437 32.5383 32.3937 32.715C32.747 32.8883 33.0004 33.1517 33.1537 33.505C33.2304 33.6717 33.2787 33.8533 33.2987 34.05C33.3187 34.2433 33.3287 34.4467 33.3287 34.66V38H32.5387V36.705L32.7237 36.825C32.5204 37.2617 32.2354 37.5917 31.8687 37.815C31.5054 38.0383 31.062 38.15 30.5387 38.15ZM30.6737 37.405C30.9937 37.405 31.2704 37.3483 31.5037 37.235C31.7404 37.1183 31.9304 36.9667 32.0737 36.78C32.217 36.59 32.3104 36.3833 32.3537 36.16C32.4037 35.9933 32.4304 35.8083 32.4337 35.605C32.4404 35.3983 32.4437 35.24 32.4437 35.13L32.7537 35.265C32.4637 35.305 32.1787 35.3433 31.8987 35.38C31.6187 35.4167 31.3537 35.4567 31.1037 35.5C30.8537 35.54 30.6287 35.5883 30.4287 35.645C30.282 35.6917 30.1437 35.7517 30.0137 35.825C29.887 35.8983 29.7837 35.9933 29.7037 36.11C29.627 36.2233 29.5887 36.365 29.5887 36.535C29.5887 36.6817 29.6254 36.8217 29.6987 36.955C29.7754 37.0883 29.892 37.1967 30.0487 37.28C30.2087 37.3633 30.417 37.405 30.6737 37.405ZM34.6237 38L34.6287 30.8H35.5287V35.2L37.7937 32.6H38.9487L36.5637 35.3L39.2287 38H37.9837L35.5287 35.4V38H34.6237ZM41.6687 38.145C41.0254 38.145 40.497 38.005 40.0837 37.725C39.6737 37.4417 39.422 37.0467 39.3287 36.54L40.2387 36.395C40.312 36.6883 40.4804 36.9217 40.7437 37.095C41.007 37.265 41.3337 37.35 41.7237 37.35C42.0937 37.35 42.3837 37.2733 42.5937 37.12C42.8037 36.9667 42.9087 36.7583 42.9087 36.495C42.9087 36.3417 42.8737 36.2183 42.8037 36.125C42.7337 36.0283 42.5887 35.9383 42.3687 35.855C42.152 35.7717 41.8237 35.6717 41.3837 35.555C40.907 35.4283 40.532 35.2967 40.2587 35.16C39.9854 35.0233 39.7904 34.865 39.6737 34.685C39.557 34.505 39.4987 34.2867 39.4987 34.03C39.4987 33.7133 39.5854 33.4367 39.7587 33.2C39.932 32.96 40.1737 32.775 40.4837 32.645C40.797 32.515 41.1604 32.45 41.5737 32.45C41.9837 32.45 42.3504 32.515 42.6737 32.645C42.997 32.775 43.257 32.96 43.4537 33.2C43.6537 33.4367 43.772 33.7133 43.8087 34.03L42.8987 34.195C42.8554 33.905 42.7154 33.6767 42.4787 33.51C42.2454 33.3433 41.9437 33.255 41.5737 33.245C41.2237 33.2317 40.9387 33.2933 40.7187 33.43C40.502 33.5667 40.3937 33.7517 40.3937 33.985C40.3937 34.115 40.4337 34.2267 40.5137 34.32C40.597 34.4133 40.7487 34.5017 40.9687 34.585C41.192 34.6683 41.5154 34.7633 41.9387 34.87C42.4154 34.99 42.7904 35.1217 43.0637 35.265C43.3404 35.405 43.537 35.5717 43.6537 35.765C43.7704 35.955 43.8287 36.19 43.8287 36.47C43.8287 36.99 43.637 37.4 43.2537 37.7C42.8704 37.9967 42.342 38.145 41.6687 38.145ZM45.0314 31.645V30.725H45.9214V31.645H45.0314ZM45.0314 38V32.6H45.9214V38H45.0314Z" fill="#767873"/>
<path d="M29 13.5C29.4333 13.5 29.7917 13.3583 30.075 13.075C30.3583 12.7917 30.5 12.4333 30.5 12C30.5 11.5667 30.3583 11.2083 30.075 10.925C29.7917 10.6417 29.4333 10.5 29 10.5C28.5667 10.5 28.2083 10.6417 27.925 10.925C27.6417 11.2083 27.5 11.5667 27.5 12C27.5 12.4333 27.6417 12.7917 27.925 13.075C28.2083 13.3583 28.5667 13.5 29 13.5ZM18 21C17.45 21 16.979 20.804 16.587 20.412C16.195 20.02 15.9993 19.5493 16 19V5C16 4.45 16.196 3.979 16.588 3.587C16.98 3.195 17.4507 2.99934 18 3H32C32.55 3 33.021 3.196 33.413 3.588C33.805 3.98 34.0007 4.45067 34 5V7.5H32V5H18V19H32V16.5H34V19C34 19.55 33.804 20.021 33.412 20.413C33.02 20.805 32.5493 21.0007 32 21H18ZM26 17C25.45 17 24.979 16.804 24.587 16.412C24.195 16.02 23.9993 15.5493 24 15V9C24 8.45 24.196 7.979 24.588 7.587C24.98 7.195 25.4507 6.99934 26 7H33C33.55 7 34.021 7.196 34.413 7.588C34.805 7.98 35.0007 8.45067 35 9V15C35 15.55 34.804 16.021 34.412 16.413C34.02 16.805 33.5493 17.0007 33 17H26ZM33 15V9H26V15H33Z" fill="#767873"/>
</svg>
