<svg width="28" height="28" viewBox="0 0 28 28" fill="none" xmlns="http://www.w3.org/2000/svg">
<g clip-path="url(#clip0_369_2516)">
<path d="M14 28C21.732 28 28 21.732 28 14C28 6.26801 21.732 0 14 0C6.26801 0 0 6.26801 0 14C0 21.732 6.26801 28 14 28Z" fill="#C2D5D8"/>
<path d="M5.83691 8.75C5.83691 8.26875 6.29979 7.875 6.78104 7.875H13.5623H20.3435C20.8248 7.875 21.1494 8.26875 21.1494 8.75V10.9375H5.83691V8.75Z" fill="#805026"/>
<path d="M15.3566 3.44806L6.07617 12.7285L11.3352 17.9875L20.6156 8.70708L15.3566 3.44806Z" fill="#238C7C"/>
<path d="M14.7898 4.63184L7.25732 12.1643C7.42729 12.5208 7.42729 12.9373 7.25732 13.2939L10.768 16.8046C11.1246 16.6346 11.5411 16.6346 11.8977 16.8046L19.4301 9.27218C19.2601 8.91562 19.2601 8.49912 19.4301 8.14255L15.9194 4.63184C15.5628 4.80202 15.1463 4.80202 14.7898 4.63184Z" fill="#A3CCC5"/>
<path d="M10.2505 14.4678C10.6129 14.4678 10.9067 14.174 10.9067 13.8115C10.9067 13.4491 10.6129 13.1553 10.2505 13.1553C9.88805 13.1553 9.59424 13.4491 9.59424 13.8115C9.59424 14.174 9.88805 14.4678 10.2505 14.4678Z" fill="#238C7C"/>
<path d="M16.437 8.28125C16.7994 8.28125 17.0933 7.98744 17.0933 7.625C17.0933 7.26256 16.7994 6.96875 16.437 6.96875C16.0746 6.96875 15.7808 7.26256 15.7808 7.625C15.7808 7.98744 16.0746 8.28125 16.437 8.28125Z" fill="#238C7C"/>
<path d="M13.3438 12.9062C14.5519 12.9062 15.5312 11.9269 15.5312 10.7188C15.5312 9.51063 14.5519 8.53125 13.3438 8.53125C12.1356 8.53125 11.1562 9.51063 11.1562 10.7188C11.1562 11.9269 12.1356 12.9062 13.3438 12.9062Z" fill="#238C7C"/>
<path d="M5.83691 8.75C5.83691 9.23125 6.29979 9.625 6.78104 9.625H18.156H21.4373C21.9185 9.625 22.2432 10.0187 22.2432 10.5V20.5625C22.2432 21.0437 21.919 21.4375 21.4373 21.4375H6.78104C6.29979 21.4375 5.83691 21.0437 5.83691 20.5625V8.75Z" fill="#B37035"/>
<path d="M22.2432 10.0625C22.2432 9.821 22.0472 9.625 21.8057 9.625C21.5642 9.625 21.3682 9.821 21.3682 10.0625V21C21.3682 21.2415 21.5642 21.4375 21.8057 21.4375C22.0472 21.4375 22.2432 21.2415 22.2432 21V10.0625Z" fill="#A66831"/>
<path d="M22.3125 13.5625H19.4688C18.2606 13.5625 17.2812 14.5418 17.2812 15.75C17.2812 16.9582 18.2606 17.9375 19.4688 17.9375H22.3125C22.4335 17.9375 22.4621 17.8395 22.4621 17.7188V13.7812C22.4621 13.6605 22.4335 13.5625 22.3125 13.5625Z" fill="#D9C182"/>
<path d="M19.2502 13.7812H19.2156C18.2313 13.8902 17.4829 14.7368 17.4829 15.75C17.4829 16.7632 18.2227 17.6098 19.2071 17.7188H19.2502H22.2436V13.7812H19.2502Z" fill="#B37035"/>
<path d="M19.25 16.625C19.7332 16.625 20.125 16.2332 20.125 15.75C20.125 15.2668 19.7332 14.875 19.25 14.875C18.7668 14.875 18.375 15.2668 18.375 15.75C18.375 16.2332 18.7668 16.625 19.25 16.625Z" fill="#263740"/>
<path d="M7.58691 10.9375H6.71191V11.1562H7.58691V10.9375Z" fill="#D9C182"/>
<path d="M9.77441 10.9375H8.89941V11.1562H9.77441V10.9375Z" fill="#D9C182"/>
<path d="M11.9619 10.9375H11.0869V11.1562H11.9619V10.9375Z" fill="#D9C182"/>
<path d="M14.1494 10.9375H13.2744V11.1562H14.1494V10.9375Z" fill="#D9C182"/>
<path d="M16.3359 10.9375H15.4609V11.1562H16.3359V10.9375Z" fill="#D9C182"/>
<path d="M18.5234 10.9375H17.6484V11.1562H18.5234V10.9375Z" fill="#D9C182"/>
<path d="M20.7109 10.9375H19.8359V11.1562H20.7109V10.9375Z" fill="#D9C182"/>
<path d="M7.58691 20.3438H6.71191V20.5625H7.58691V20.3438Z" fill="#D9C182"/>
<path d="M9.77441 20.3438H8.89941V20.5625H9.77441V20.3438Z" fill="#D9C182"/>
<path d="M11.9619 20.3438H11.0869V20.5625H11.9619V20.3438Z" fill="#D9C182"/>
<path d="M14.1494 20.3438H13.2744V20.5625H14.1494V20.3438Z" fill="#D9C182"/>
<path d="M16.3359 20.3438H15.4609V20.5625H16.3359V20.3438Z" fill="#D9C182"/>
<path d="M18.5234 20.3438H17.6484V20.5625H18.5234V20.3438Z" fill="#D9C182"/>
<path d="M20.7109 20.3438H19.8359V20.5625H20.7109V20.3438Z" fill="#D9C182"/>
</g>
<defs>
<clipPath id="clip0_369_2516">
<rect width="28" height="28" fill="white"/>
</clipPath>
</defs>
</svg>
