<svg width="250" height="250" viewBox="0 0 250 250" fill="none" xmlns="http://www.w3.org/2000/svg">
<rect width="250" height="250" rx="50" fill="#FF9D30"/>
<path d="M120.528 108.408C120.528 110.029 121.552 111.309 123.6 112.248C125.733 113.187 129.189 114.211 133.968 115.32C139.771 116.685 144.635 118.136 148.56 119.672C152.571 121.208 156.027 123.597 158.928 126.84C161.829 130.083 163.28 134.349 163.28 139.64C163.28 148.429 160.08 155.768 153.68 161.656C147.365 167.544 138.661 171.171 127.568 172.536L124.752 186.36H106.704L109.392 172.664C103.333 172.152 97.6587 171.128 92.368 169.592C87.1627 167.971 82.768 166.008 79.184 163.704L90.832 141.688C100.475 147.235 110.544 150.008 121.04 150.008C124.88 150.008 127.824 149.539 129.872 148.6C131.92 147.661 132.944 146.381 132.944 144.76C132.944 143.224 131.877 141.987 129.744 141.048C127.696 140.109 124.411 139.085 119.888 137.976C113.915 136.44 108.965 134.904 105.04 133.368C101.115 131.747 97.6587 129.315 94.672 126.072C91.7707 122.744 90.32 118.392 90.32 113.016C90.32 103.715 93.648 96.12 100.304 90.232C106.96 84.344 116.219 80.8453 128.08 79.736L130.768 66.04H148.816L146 79.992C155.301 81.016 163.024 83.4053 169.168 87.16L158.288 109.048C154.789 106.829 150.907 105.165 146.64 104.056C142.459 102.947 138.149 102.392 133.712 102.392C129.531 102.392 126.288 102.989 123.984 104.184C121.68 105.379 120.528 106.787 120.528 108.408Z" fill="white"/>
</svg>
